<?xml version="1.0" standalone="no"?>
<!DOCTYPE svg PUBLIC "-//W3C//DTD SVG 20010904//EN"
 "http://www.w3.org/TR/2001/REC-SVG-20010904/DTD/svg10.dtd">
<svg version="1.0" xmlns="http://www.w3.org/2000/svg"
 width="400.000000pt" height="400.000000pt" viewBox="0 0 400.000000 400.000000"
 preserveAspectRatio="xMidYMid meet">

<g transform="translate(0.000000,400.000000) scale(0.100000,-0.100000)"
fill="#000000" stroke="none">
<path d="M2749 2692 c-96 -4 -135 -31 -147 -102 -4 -25 -7 -202 -7 -395 0
-322 1 -352 18 -380 24 -39 69 -65 115 -65 84 0 134 45 146 130 9 63 17 72 73
77 l50 5 150 298 c137 271 149 299 134 311 -38 31 -81 59 -89 59 -5 0 -31 9
-58 19 -104 40 -195 50 -385 43z m274 -234 c51 -27 68 -57 70 -116 2 -44 -2
-63 -15 -76 -10 -10 -18 -21 -18 -26 0 -13 -92 -41 -142 -43 l-43 -2 -3 144
-3 144 67 -7 c37 -4 76 -12 87 -18z"/>
<path d="M3452 2200 c0 -14 2 -19 5 -12 2 6 2 18 0 25 -3 6 -5 1 -5 -13z"/>
<path d="M3366 2133 c-6 -14 -5 -15 5 -6 7 7 10 15 7 18 -3 3 -9 -2 -12 -12z"/>
<path d="M3306 2023 c-6 -14 -5 -15 5 -6 7 7 10 15 7 18 -3 3 -9 -2 -12 -12z"/>
<path d="M3429 1993 c-13 -16 -12 -17 4 -4 16 13 21 21 13 21 -2 0 -10 -8 -17
-17z"/>
<path d="M3318 1973 c6 -2 18 -2 25 0 6 3 1 5 -13 5 -14 0 -19 -2 -12 -5z"/>
<path d="M2785 1697 c-36 -14 -64 -43 -70 -71 -10 -50 -11 -86 -2 -86 5 0 20
-11 33 -25 34 -36 98 -37 151 -2 30 20 33 26 33 75 0 56 -23 92 -65 104 -11 3
-27 8 -35 11 -8 3 -28 0 -45 -6z m73 -69 c17 -17 15 -65 -4 -72 -31 -12 -54
-6 -71 20 -16 26 -16 27 6 45 27 22 52 24 69 7z"/>
<path d="M3025 1700 c-3 -5 -17 -10 -30 -10 -29 0 -35 -16 -35 -100 0 -81 6
-100 30 -100 23 0 30 19 30 83 0 67 9 79 51 75 28 -2 35 -8 37 -28 5 -33 20
-50 43 -50 15 0 19 7 19 38 0 42 -22 72 -63 90 -34 15 -74 16 -82 2z"/>
<path d="M3255 1694 c-11 -3 -28 -22 -39 -44 -23 -49 -17 -104 17 -138 20 -20
34 -24 81 -23 l56 0 0 -48 c0 -42 -3 -49 -25 -59 -40 -18 -65 -15 -74 11 -5
12 -7 25 -5 29 6 9 -34 21 -46 13 -17 -11 -11 -60 10 -83 41 -44 147 -41 178
6 23 36 29 317 6 326 -21 8 -136 15 -159 10z m100 -84 c9 -40 -9 -62 -48 -58
-39 4 -52 25 -38 61 9 22 17 27 45 27 30 0 35 -4 41 -30z"/>
<path d="M2622 1558 c-28 -28 -6 -68 39 -68 30 0 45 31 28 62 -11 20 -49 24
-67 6z"/>
</g>
</svg>
